<svg xmlns="http://www.w3.org/2000/svg" viewBox="0 0 1000 800" width="1000" height="800">
  <path d="M 862.64 365.7 Q 869.34 396.57 859.46 426.9 Q 849.59 457.23 816.53 478.94 Q 783.47 500.65 755.69 518.16 Q 727.91 535.66 711.44 559.97 Q 694.98 584.28 671.42 609.12 Q 647.86 633.96 611.34 645.58 Q 574.82 657.2 535.2 657.48 Q 495.57 657.75 457.03 653.93 Q 418.49 650.11 383.51 637.95 Q 348.53 625.8 323.93 603.55 Q 299.33 581.31 278.88 559.92 Q 258.44 538.54 227.36 521.65 Q 196.29 504.77 164.51 481.76 Q 132.73 458.74 128.15 427.66 Q 123.57 396.57 146.61 368.65 Q 169.64 340.73 193.36 318.31 Q 217.07 295.89 232.09 271.86 Q 247.1 247.82 267.4 224.36 Q 287.7 200.89 318.35 184.49 Q 348.99 168.08 383.72 155.48 Q 418.44 142.89 457.01 133.59 Q 495.57 124.29 535.24 129.96 Q 574.91 135.63 604.59 158 Q 634.27 180.37 656.92 201.87 Q 679.56 223.38 711.99 235.49 Q 744.41 247.6 782.26 263.43 Q 820.1 279.25 838.03 307.04 Q 855.95 334.83 862.64 365.7 Z" fill="#ffffff" stroke="#1b1e24" stroke-width="4" stroke-linejoin="round" stroke-linecap="round"/>
</svg>
