<svg xmlns="http://www.w3.org/2000/svg" viewBox="0 0 1000 800" width="1000" height="800">
  <path d="M 846.63 375.47 Q 870.28 401.59 858.47 429.61 Q 846.66 457.63 819.38 479.51 Q 792.1 501.39 775.88 525.05 Q 759.66 548.72 750.98 583.19 Q 742.3 617.66 710.06 641.58 Q 677.83 665.49 628.25 659.57 Q 578.67 653.65 537.66 640.9 Q 496.65 628.15 458.99 630.63 Q 421.32 633.11 378.57 634.49 Q 335.81 635.87 298.71 622.1 Q 261.61 608.33 229.95 588.41 Q 198.3 568.49 172.21 544.24 Q 146.13 520 145.38 488.97 Q 144.63 457.95 161.52 429.77 Q 178.4 401.59 174.9 375.55 Q 171.4 349.52 155.42 315.22 Q 139.45 280.92 156.22 250.73 Q 172.98 220.53 220.28 210.31 Q 267.57 200.09 309.68 195.33 Q 351.78 190.57 385.8 178.01 Q 419.82 165.46 458.24 157.74 Q 496.65 150.03 537.16 151.32 Q 577.67 152.61 621.34 154.49 Q 665.01 156.36 706.06 168.83 Q 747.11 181.29 762.84 212.59 Q 778.57 243.88 778.39 275.18 Q 778.2 306.48 800.59 327.91 Q 822.98 349.34 846.63 375.47 Z" fill="#ffffff" stroke="#1b1e24" stroke-width="4" stroke-linejoin="round" stroke-linecap="round"/>
</svg>
