<svg xmlns="http://www.w3.org/2000/svg" viewBox="0 0 1000 800" width="1000" height="800">
  <path d="M 850.98 368.12 Q 889.1 395.31 872.19 426.22 Q 855.28 457.12 821.23 479.35 Q 787.19 501.58 769.07 526.74 Q 750.94 551.91 737.26 587.58 Q 723.57 623.26 684.76 644.12 Q 645.95 664.99 595.88 658.77 Q 545.81 652.56 503.42 642.95 Q 461.04 633.35 420.08 629.05 Q 379.12 624.75 339.97 613.3 Q 300.82 601.85 264.13 584.79 Q 227.44 567.73 189.7 546.65 Q 151.95 525.56 136.84 493.67 Q 121.74 461.77 142.13 428.54 Q 162.52 395.31 178.95 368.53 Q 195.38 341.74 189.26 309.21 Q 183.13 276.68 192.75 241.91 Q 202.36 207.14 242.64 188.76 Q 282.92 170.39 328.68 163.74 Q 374.43 157.1 416.91 152.4 Q 459.4 147.7 501.18 151.23 Q 542.95 154.76 583.18 161.28 Q 623.41 167.8 671.23 169.91 Q 719.05 172.02 763.61 187.39 Q 808.18 202.75 818.7 238.07 Q 829.23 273.4 821.04 307.16 Q 812.85 340.92 850.98 368.12 Z" fill="#ffffff" stroke="#1b1e24" stroke-width="4" stroke-linejoin="round" stroke-linecap="round"/>
</svg>
