<svg xmlns="http://www.w3.org/2000/svg" viewBox="0 0 1000 800" width="1000" height="800">
  <path d="M 865.98 373.6 Q 884.96 405.44 875.79 439.07 Q 866.62 472.71 829.49 496.22 Q 792.35 519.73 762.36 539.32 Q 732.37 558.9 710.76 584.41 Q 689.15 609.91 656.58 629.97 Q 624.01 650.04 582.59 656.47 Q 541.18 662.9 498.64 665.62 Q 456.1 668.34 411.72 665.86 Q 367.35 663.38 332.9 642.33 Q 298.45 621.28 282.25 590.01 Q 266.06 558.74 245.99 535.32 Q 225.92 511.9 190.21 490.2 Q 154.51 468.5 134.4 436.97 Q 114.3 405.44 130.29 373.15 Q 146.28 340.86 174.45 315.38 Q 202.62 289.89 225.47 265.18 Q 248.32 240.47 277.59 219.56 Q 306.87 198.65 344.86 188.26 Q 382.86 177.86 420.7 167.71 Q 458.55 157.56 501.31 143.97 Q 544.06 130.39 589.82 134.29 Q 635.57 138.19 664.93 166.81 Q 694.3 195.43 710.82 225.35 Q 727.34 255.27 755.25 275 Q 783.16 294.72 815.08 318.24 Q 847.01 341.76 865.98 373.6 Z" fill="#ffffff" stroke="#1b1e24" stroke-width="4" stroke-linejoin="round" stroke-linecap="round"/>
</svg>
