<svg xmlns="http://www.w3.org/2000/svg" viewBox="0 0 1000 800" width="1000" height="800">
  <path d="M 868.05 372.88 Q 896.48 398.14 893.23 427.18 Q 889.98 456.21 864.58 480.01 Q 839.18 503.82 809.86 522.17 Q 780.54 540.53 755.87 558.84 Q 731.2 577.15 704.59 594.71 Q 677.97 612.27 644.74 623.3 Q 611.51 634.33 575.44 639.28 Q 539.38 644.22 502.03 648.8 Q 464.69 653.37 423.86 655.68 Q 383.02 657.99 344.52 648.23 Q 306.02 638.46 281.73 614.38 Q 257.44 590.3 246.61 562.62 Q 235.78 534.95 222.61 512.6 Q 209.43 490.25 186.48 469.63 Q 163.53 449 144.64 423.57 Q 125.75 398.14 126.59 370.01 Q 127.43 341.87 145.06 316.61 Q 162.68 291.35 185.09 269.09 Q 207.49 246.84 232.75 226.64 Q 258.01 206.44 290.79 192.85 Q 323.57 179.27 360.87 175.23 Q 398.18 171.19 433.29 169.52 Q 468.4 167.86 503.8 160.62 Q 539.19 153.38 580.56 146.34 Q 621.94 139.3 662.64 146.16 Q 703.34 153.01 729.94 176.16 Q 756.53 199.3 769.23 227.17 Q 781.93 255.05 794.2 278.89 Q 806.48 302.74 823.05 325.18 Q 839.62 347.63 868.05 372.88 Z" fill="#ffffff" stroke="#1b1e24" stroke-width="4" stroke-linejoin="round" stroke-linecap="round"/>
</svg>
