<svg xmlns="http://www.w3.org/2000/svg" viewBox="0 0 1000 800" width="1000" height="800">
  <path d="M 855.1 380.29 Q 876.42 404.94 866.38 431.29 Q 856.35 457.64 824.44 476.41 Q 792.54 495.18 766.51 510.28 Q 740.48 525.37 729.75 548.75 Q 719.02 572.13 703.19 599.46 Q 687.37 626.8 654.17 640.5 Q 620.97 654.2 581.95 651.5 Q 542.92 648.8 507.65 642.98 Q 472.38 637.15 438.7 632.11 Q 405.03 627.08 375.09 615.3 Q 345.14 603.52 321.78 586.3 Q 298.42 569.08 271.62 554.51 Q 244.81 539.95 210.34 524.69 Q 175.88 509.44 155.4 485.22 Q 134.92 461.01 146.92 432.98 Q 158.92 404.94 185.13 382.67 Q 211.34 360.4 223.31 339.8 Q 235.29 319.21 237.34 293.18 Q 239.39 267.15 254.38 242.54 Q 269.37 217.92 300.22 203.5 Q 331.08 189.08 365.61 180.61 Q 400.13 172.13 435.26 165.7 Q 470.38 159.28 506.28 162.7 Q 542.18 166.12 572.28 181.18 Q 602.39 196.24 629.07 209.1 Q 655.74 221.95 692.13 226.11 Q 728.53 230.27 769.46 239.38 Q 810.4 248.48 830.02 272.58 Q 849.64 296.67 841.71 326.16 Q 833.78 355.64 855.1 380.29 Z" fill="#ffffff" stroke="#1b1e24" stroke-width="4" stroke-linejoin="round" stroke-linecap="round"/>
</svg>
