<svg xmlns="http://www.w3.org/2000/svg" viewBox="0 0 1000 800" width="1000" height="800">
  <path d="M 780.84 368.98 Q 860 390 780.84 411.02 Q 701.69 432.03 756.73 481.02 Q 811.77 530 729.71 517.42 Q 647.64 504.83 663.82 568.66 Q 680 632.49 617.02 589.68 Q 554.04 546.87 527.02 608.43 Q 500 670 472.98 608.43 Q 445.96 546.87 382.98 589.68 Q 320 632.49 336.18 568.66 Q 352.36 504.83 270.29 517.42 Q 188.23 530 243.27 481.02 Q 298.31 432.03 219.16 411.02 Q 140 390 219.16 368.98 Q 298.31 347.97 243.27 298.98 Q 188.23 250 270.29 262.58 Q 352.36 275.17 336.18 211.34 Q 320 147.51 382.98 190.32 Q 445.96 233.13 472.98 171.57 Q 500 110 527.02 171.57 Q 554.04 233.13 617.02 190.32 Q 680 147.51 663.82 211.34 Q 647.64 275.17 729.71 262.58 Q 811.77 250 756.73 298.98 Q 701.69 347.97 780.84 368.98 Z" fill="#ffffff" stroke="#1b1e24" stroke-width="5" stroke-linejoin="round" stroke-linecap="round"/>
</svg>
