<svg xmlns="http://www.w3.org/2000/svg" viewBox="0 0 1000 800" width="1000" height="800">
  <path d="M 733.9 457.6 Q 806.8 498.06 719.94 482.25 Q 633.09 466.44 678.82 526.79 Q 724.55 587.13 653.35 544.83 Q 582.16 502.53 592.82 572.32 Q 603.47 642.12 560.25 580.64 Q 517.03 519.15 490.76 586.34 Q 464.5 653.52 456.73 583.48 Q 448.95 513.45 390.31 566.4 Q 331.67 619.35 360.69 552.87 Q 389.7 486.4 308.82 515.96 Q 227.95 545.52 288.73 494.1 Q 349.52 442.68 260.39 443.74 Q 171.26 444.81 253.31 417.33 Q 335.36 389.85 253.39 362.23 Q 171.42 334.61 260.54 335.83 Q 349.67 337.05 289.03 285.52 Q 228.39 234 309.18 263.7 Q 389.97 293.41 361.15 226.88 Q 332.33 160.35 390.81 213.41 Q 449.3 266.46 457.28 196.44 Q 465.25 126.42 491.32 193.65 Q 517.39 260.88 560.79 199.47 Q 604.19 138.06 593.33 207.84 Q 582.48 277.62 653.79 235.44 Q 725.11 193.27 679.21 253.53 Q 633.3 313.79 720.2 298.14 Q 807.1 282.49 734.09 322.82 Q 661.08 363.15 748.54 376.72 Q 836 390.3 748.5 403.72 Q 661 417.14 733.9 457.6 Z" fill="#ffffff" stroke="#1b1e24" stroke-width="5" stroke-linejoin="round" stroke-linecap="round"/>
</svg>
