<svg xmlns="http://www.w3.org/2000/svg" viewBox="0 0 1000 800" width="1000" height="800">
  <path d="M 754.6 431.21 Q 830.6 464.62 743.6 461.23 Q 656.6 457.85 706.61 513.83 Q 756.62 569.81 680.1 537.14 Q 603.59 504.46 617.69 571.93 Q 631.8 639.4 580.93 583.9 Q 530.05 528.4 505.47 593.99 Q 480.88 659.58 465.72 592.26 Q 450.57 524.93 392.16 575.65 Q 333.75 626.38 357.31 560.56 Q 380.87 494.73 300.21 520.54 Q 219.55 546.35 277.16 495.07 Q 334.77 443.79 247.83 439.58 Q 160.89 435.36 241.14 408.78 Q 321.4 382.2 245.4 348.79 Q 169.4 315.38 256.4 318.77 Q 343.4 322.15 293.39 266.17 Q 243.38 210.19 319.9 242.86 Q 396.41 275.54 382.31 208.07 Q 368.2 140.6 419.07 196.1 Q 469.95 251.6 494.53 186.01 Q 519.12 120.42 534.28 187.74 Q 549.43 255.07 607.84 204.35 Q 666.25 153.62 642.69 219.44 Q 619.13 285.27 699.79 259.46 Q 780.45 233.65 722.84 284.93 Q 665.23 336.21 752.17 340.42 Q 839.11 344.64 758.86 371.22 Q 678.6 397.8 754.6 431.21 Z" fill="#ffffff" stroke="#1b1e24" stroke-width="5" stroke-linejoin="round" stroke-linecap="round"/>
</svg>
