<svg xmlns="http://www.w3.org/2000/svg" viewBox="0 0 1000 800" width="1000" height="800">
  <path d="M 770.58 401.51 Q 848.56 428.37 764.11 437.35 Q 679.67 446.33 732.74 498.43 Q 785.8 550.53 705.69 527.82 Q 625.58 505.11 641.58 570.51 Q 657.58 635.91 600.15 586.71 Q 542.72 537.52 517.99 601.24 Q 493.25 664.95 471.66 600.54 Q 450.07 536.13 390.27 583.57 Q 330.47 631.01 349.67 566.14 Q 368.87 501.27 287.7 521.56 Q 206.53 541.85 262.11 491.38 Q 317.7 440.91 233.76 429.41 Q 149.82 417.91 229.06 393.4 Q 308.29 368.89 240.81 328.23 Q 173.33 287.57 258.07 294.64 Q 342.81 301.71 307.24 241.21 Q 271.67 180.7 342.5 217.73 Q 413.33 254.75 417.83 188.27 Q 422.33 121.78 463.02 180.28 Q 503.71 238.78 547.24 181.54 Q 590.77 124.3 592.01 190.87 Q 593.24 257.45 665.83 222.57 Q 738.43 187.69 699.92 247.09 Q 661.41 306.48 746.43 301.96 Q 831.46 297.43 762.03 336.04 Q 692.6 374.65 770.58 401.51 Z" fill="#ffffff" stroke="#1b1e24" stroke-width="5" stroke-linejoin="round" stroke-linecap="round"/>
</svg>
