<svg xmlns="http://www.w3.org/2000/svg" viewBox="0 0 1000 800" width="1000" height="800">
  <path d="M 709.46 480.32 Q 777.9 528.11 693.82 500.09 Q 609.74 472.08 649.91 536.99 Q 690.07 601.9 625.92 550.51 Q 561.76 499.12 567.53 571.27 Q 573.31 643.42 538.84 576.49 Q 504.38 509.55 474.88 577.96 Q 445.38 646.37 445.86 574.07 Q 446.33 501.78 386.05 556.03 Q 325.77 610.29 361.11 543.64 Q 396.46 476.99 314.57 508.83 Q 232.69 540.67 297.51 489.81 Q 362.34 438.96 271.32 443.53 Q 180.3 448.11 264.74 420.79 Q 349.18 393.47 262.88 370.09 Q 176.58 346.7 267.78 347.08 Q 358.99 347.46 290.54 299.68 Q 222.1 251.89 306.18 279.91 Q 390.26 307.92 350.09 243.01 Q 309.93 178.1 374.08 229.49 Q 438.24 280.88 432.47 208.73 Q 426.69 136.58 461.16 203.51 Q 495.62 270.45 525.12 202.04 Q 554.62 133.63 554.14 205.93 Q 553.67 278.22 613.95 223.97 Q 674.23 169.71 638.89 236.36 Q 603.54 303.01 685.43 271.17 Q 767.31 239.33 702.49 290.19 Q 637.66 341.04 728.68 336.47 Q 819.7 331.89 735.26 359.21 Q 650.82 386.53 737.12 409.91 Q 823.42 433.3 732.22 432.92 Q 641.01 432.54 709.46 480.32 Z" fill="#ffffff" stroke="#1b1e24" stroke-width="5" stroke-linejoin="round" stroke-linecap="round"/>
</svg>
