<svg xmlns="http://www.w3.org/2000/svg" viewBox="0 0 1000 800" width="1000" height="800">
  <path d="M 905.64 363.95 Q 957.08 390 941.83 421.37 Q 926.58 452.74 866.4 468.53 Q 806.21 484.33 782.66 502.29 Q 759.11 520.25 747.5 545.76 Q 735.89 571.26 703.48 583.14 Q 671.08 595.02 642.78 614.39 Q 614.47 633.76 580.81 667.06 Q 547.15 700.36 501.11 693.03 Q 455.08 685.7 428.84 641.56 Q 402.59 597.43 377.78 581.81 Q 352.98 566.19 304.52 571.82 Q 256.07 577.44 222.46 561.93 Q 188.85 546.41 169.01 522.24 Q 149.17 498.07 114.65 474.91 Q 80.14 451.75 83.88 420.87 Q 87.62 390 144.62 368.06 Q 201.62 346.12 221.67 328.28 Q 241.72 310.44 217.28 273.02 Q 192.84 235.6 204.47 203.72 Q 216.1 171.85 259.89 163.29 Q 303.68 154.73 340.73 142.25 Q 377.79 129.76 418.61 126.35 Q 459.43 122.94 495.78 150.72 Q 532.13 178.49 560.57 189.48 Q 589.01 200.47 643.08 177.1 Q 697.16 153.72 750.37 155.22 Q 803.58 156.73 811.41 193.12 Q 819.25 229.52 822.24 259.67 Q 825.22 289.82 839.71 313.86 Q 854.2 337.91 905.64 363.95 Z" fill="#ffffff" stroke="#1b1e24" stroke-width="4" stroke-linejoin="round" stroke-linecap="round"/>
</svg>
