<svg xmlns="http://www.w3.org/2000/svg" viewBox="0 0 1000 800" width="1000" height="800">
  <path d="M 855.83 365.94 Q 881.5 390 879.42 417.5 Q 877.35 445 856.25 468.66 Q 835.16 492.32 821.1 517.64 Q 807.03 542.96 774.79 558.84 Q 742.54 574.71 694.69 569.55 Q 646.83 564.39 616.58 568.28 Q 586.32 572.17 561.83 602.91 Q 537.34 633.64 497.18 652.01 Q 457.02 670.38 419.49 654.76 Q 381.95 639.14 352.64 619.48 Q 323.34 599.82 291.93 586.1 Q 260.52 572.38 247.33 547.42 Q 234.14 522.45 237.94 495.65 Q 241.74 468.85 215.47 452.07 Q 189.21 435.3 142.46 412.65 Q 95.71 390 94.51 360.36 Q 93.3 330.72 134.07 310.72 Q 174.83 290.73 203.75 273.77 Q 232.66 256.81 253.28 237.31 Q 273.89 217.8 308.66 210.93 Q 343.43 204.05 375.14 198.73 Q 406.85 193.41 434.21 166.32 Q 461.56 139.24 503.22 118.21 Q 544.88 97.18 582.66 116.51 Q 620.43 135.83 639.84 168.35 Q 659.25 200.86 684.75 215.37 Q 710.26 229.88 739.88 242.81 Q 769.5 255.74 781.14 278.17 Q 792.78 300.61 811.47 321.25 Q 830.15 341.88 855.83 365.94 Z" fill="#ffffff" stroke="#1b1e24" stroke-width="4" stroke-linejoin="round" stroke-linecap="round"/>
</svg>
