<svg xmlns="http://www.w3.org/2000/svg" viewBox="0 0 1000 800" width="1000" height="800">
  <path d="M 920.74 362.69 Q 971.61 390 946.67 421.14 Q 921.73 452.28 849.58 464.04 Q 777.42 475.81 762.66 495.47 Q 747.9 515.13 754.8 553.53 Q 761.7 591.93 730.89 611.35 Q 700.08 630.76 662.67 644.3 Q 625.26 657.84 585.93 677.95 Q 546.6 698.05 503.2 676.92 Q 459.79 655.78 436.94 614.73 Q 414.09 573.69 375.92 579.47 Q 337.74 585.24 272.28 600.73 Q 206.81 616.22 178.45 591.42 Q 150.09 566.62 146.46 533.55 Q 142.83 500.48 126.3 474.05 Q 109.78 447.62 129.68 418.81 Q 149.58 390 184.6 369.3 Q 219.63 348.6 192.15 317.44 Q 164.67 286.28 139.33 240.72 Q 114 195.16 162.54 181.12 Q 211.08 167.08 268.24 173.48 Q 325.4 179.89 357.74 167.43 Q 390.08 154.96 426.87 152.42 Q 463.67 149.88 498.83 157.58 Q 534 165.29 580.4 142.09 Q 626.79 118.89 685.11 107.99 Q 743.42 97.09 755.23 140.52 Q 767.04 183.95 755.86 225.23 Q 744.67 266.5 777.19 280.35 Q 809.71 294.2 839.79 314.79 Q 869.86 335.38 920.74 362.69 Z" fill="#ffffff" stroke="#1b1e24" stroke-width="4" stroke-linejoin="round" stroke-linecap="round"/>
</svg>
