<svg xmlns="http://www.w3.org/2000/svg" viewBox="0 0 1000 800" width="1000" height="800">
  <path d="M 907.98 361.26 Q 923.4 390 917.11 420.08 Q 910.83 450.16 870 470.56 Q 829.18 490.96 806.6 511.56 Q 784.02 532.16 757.79 549.66 Q 731.56 567.16 691.29 568.68 Q 651.02 570.19 624.67 584.32 Q 598.32 598.46 570.8 636.09 Q 543.29 673.73 498.53 683.35 Q 453.78 692.97 420.6 660.83 Q 387.42 628.68 364.34 604.04 Q 341.26 579.41 307.77 571.05 Q 274.28 562.69 252.43 543.77 Q 230.58 524.85 216.07 503.19 Q 201.57 481.53 158.02 463.99 Q 114.47 446.45 83.7 418.23 Q 52.93 390 90.21 362.73 Q 127.5 335.45 177.99 321.09 Q 228.48 306.72 237.32 284.83 Q 246.15 262.94 253.91 235.3 Q 261.67 207.65 292.45 193.37 Q 323.23 179.08 353.25 160.79 Q 383.26 142.5 419.11 118.6 Q 454.95 94.71 498.19 106.55 Q 541.44 118.4 566.65 156.82 Q 591.86 195.24 617.83 206.83 Q 643.8 218.42 692.94 211.6 Q 742.09 204.78 778.23 218.72 Q 814.36 232.66 829.26 258.55 Q 844.15 284.45 868.35 308.48 Q 892.56 332.52 907.98 361.26 Z" fill="#ffffff" stroke="#1b1e24" stroke-width="4" stroke-linejoin="round" stroke-linecap="round"/>
</svg>
