<svg xmlns="http://www.w3.org/2000/svg" viewBox="0 0 1000 800" width="1000" height="800">
  <path d="M 900.53 382.5 Q 922.12 410 914.38 439.51 Q 906.63 469.02 870.38 491.75 Q 834.12 514.49 791.91 529.87 Q 749.69 545.25 713.09 560.41 Q 676.48 575.58 637.11 591.57 Q 597.73 607.56 548.86 616.27 Q 500 624.97 448.66 621.27 Q 397.32 617.56 351.06 605.35 Q 304.8 593.14 263.63 576.74 Q 222.46 560.33 189.99 538.72 Q 157.52 517.1 143.89 490.38 Q 130.26 463.66 135.62 436.83 Q 140.97 410 150.64 385.35 Q 160.31 360.7 166.83 334.27 Q 173.35 307.85 190.02 279.49 Q 206.69 251.12 246.93 230.72 Q 287.16 210.32 342.15 206.19 Q 397.14 202.06 448.57 208.74 Q 500 215.41 545.09 221.55 Q 590.19 227.68 637.46 232.18 Q 684.74 236.68 731.79 247.82 Q 778.83 258.97 812.58 280.33 Q 846.32 301.69 862.63 328.35 Q 878.95 355 900.53 382.5 Z" fill="#ffffff" stroke="#1b1e24" stroke-width="4" stroke-linejoin="round" stroke-linecap="round"/>
</svg>
