<svg xmlns="http://www.w3.org/2000/svg" viewBox="0 0 1000 800" width="1000" height="800">
  <path d="M 884.62 383.83 Q 905.65 410 900.02 438.39 Q 894.39 466.77 863.79 490.06 Q 833.19 513.35 793.84 530.03 Q 754.49 546.72 715.93 560.88 Q 677.37 575.05 636.05 587.5 Q 594.74 599.94 547.37 605.96 Q 500 611.98 451.29 608.66 Q 402.57 605.34 357.15 595.27 Q 311.72 585.2 269.46 570.88 Q 227.19 556.56 191.86 536.55 Q 156.53 516.54 139.19 490.48 Q 121.86 464.43 127.41 437.22 Q 132.95 410 150.41 386.09 Q 167.86 362.19 183.8 339.53 Q 199.75 316.87 216.87 291.98 Q 233.99 267.09 265.58 244.18 Q 297.17 221.27 345.75 209.69 Q 394.32 198.12 447.16 200.71 Q 500 203.31 546.57 213.27 Q 593.15 223.24 635.26 234.09 Q 677.37 244.95 718.1 257.95 Q 758.82 270.95 792.21 289.98 Q 825.59 309.01 844.6 333.33 Q 863.6 357.66 884.62 383.83 Z" fill="#ffffff" stroke="#1b1e24" stroke-width="4" stroke-linejoin="round" stroke-linecap="round"/>
</svg>
