<svg xmlns="http://www.w3.org/2000/svg" viewBox="0 0 1000 800" width="1000" height="800">
  <path d="M 868.89 385.03 Q 887.86 410 883.28 437.02 Q 878.7 464.05 853.3 487.44 Q 827.91 510.83 792.39 528.82 Q 756.88 546.81 718.06 561.08 Q 679.24 575.35 636.46 585.78 Q 593.68 596.2 546.84 599.86 Q 500 603.52 453.48 599.22 Q 406.97 594.93 363.8 585.19 Q 320.64 575.46 279.69 562.31 Q 238.74 549.15 202.02 531.04 Q 165.3 512.92 142.76 488.56 Q 120.23 464.2 120.6 437.1 Q 120.98 410 139.97 385.66 Q 158.95 361.33 183.36 340.73 Q 207.78 320.14 231.56 299.92 Q 255.35 279.7 284.99 259.35 Q 314.63 239 356.85 224.19 Q 399.08 209.39 449.54 205.98 Q 500 202.57 548.5 209.88 Q 597 217.19 639.02 230.09 Q 681.04 242.99 717.86 258.67 Q 754.67 274.36 784.68 293.79 Q 814.7 313.23 832.31 336.65 Q 849.92 360.06 868.89 385.03 Z" fill="#ffffff" stroke="#1b1e24" stroke-width="4" stroke-linejoin="round" stroke-linecap="round"/>
</svg>
