<svg xmlns="http://www.w3.org/2000/svg" viewBox="0 0 1000 800" width="1000" height="800">
  <path d="M 860.34 385.26 Q 870.8 410 866.27 435.58 Q 861.74 461.16 840.37 484.18 Q 818.99 507.2 787.31 526.06 Q 755.63 544.91 717.83 559.74 Q 680.03 574.57 636.74 584.32 Q 593.45 594.07 546.73 596.46 Q 500 598.86 454.76 593.54 Q 409.52 588.23 368.68 577.8 Q 327.85 567.37 289.96 554.11 Q 252.07 540.85 216.95 523.9 Q 181.83 506.95 156.33 484.58 Q 130.83 462.21 124.46 436.1 Q 118.08 410 132.6 385.05 Q 147.12 360.1 174.14 339.52 Q 201.16 318.94 231.53 301.64 Q 261.9 284.34 294.66 268.28 Q 327.41 252.23 366.94 239 Q 406.47 225.77 453.23 219.75 Q 500 213.73 548.04 217.24 Q 596.08 220.75 639.3 231.95 Q 682.52 243.15 719.16 259.07 Q 755.79 275 785 294.63 Q 814.21 314.26 832.05 337.39 Q 849.88 360.52 860.34 385.26 Z" fill="#ffffff" stroke="#1b1e24" stroke-width="4" stroke-linejoin="round" stroke-linecap="round"/>
</svg>
